<?xml version="1.0" standalone="no"?>
<!DOCTYPE svg PUBLIC "-//W3C//DTD SVG 20010904//EN"
 "http://www.w3.org/TR/2001/REC-SVG-20010904/DTD/svg10.dtd">
<svg version="1.0" xmlns="http://www.w3.org/2000/svg"
 width="512.000000pt" height="512.000000pt" viewBox="0 0 512.000000 512.000000"
 preserveAspectRatio="xMidYMid meet">
<metadata>
Created by potrace 1.14, written by Peter Selinger 2001-2017
</metadata>
<g transform="translate(0.000000,512.000000) scale(0.100000,-0.100000)"
fill="#000000" stroke="none">
<path d="M1071 3837 c-92 -47 -84 -179 12 -216 92 -35 179 57 147 154 -20 61
-101 92 -159 62z"/>
<path d="M3578 3832 c-83 -51 -66 -178 28 -211 123 -43 209 132 101 207 -39
26 -91 28 -129 4z"/>
<path d="M705 3785 l-25 -24 0 -1100 c0 -642 4 -1110 9 -1124 11 -28 61 -52
91 -42 11 4 30 16 40 28 20 20 20 41 20 1129 l0 1109 -25 24 c-15 16 -36 25
-55 25 -19 0 -40 -9 -55 -25z"/>
<path d="M4305 3785 l-25 -24 0 -1098 c0 -604 3 -1108 6 -1121 7 -24 50 -52
82 -52 11 0 31 12 46 26 l26 27 0 1109 0 1109 -25 24 c-15 16 -36 25 -55 25
-19 0 -40 -9 -55 -25z"/>
<path d="M2465 3484 c-176 -36 -308 -149 -366 -314 -22 -61 -24 -83 -27 -362
-2 -200 0 -315 8 -353 25 -122 123 -260 227 -321 283 -167 643 -19 727 299 18
65 21 595 4 672 -14 67 -59 165 -97 213 -74 91 -204 160 -320 168 -36 3 -73 6
-81 8 -8 1 -42 -3 -75 -10z m164 -160 c90 -15 182 -89 229 -183 l27 -56 0
-305 0 -305 -27 -56 c-37 -76 -119 -150 -190 -173 -145 -45 -284 -1 -372 118
-63 85 -68 118 -64 438 l3 283 27 55 c49 99 124 160 226 184 55 13 67 13 141
0z"/>
<path d="M1425 3425 l-25 -24 0 -740 c0 -529 3 -747 11 -765 22 -47 90 -57
129 -18 13 14 15 105 18 769 l2 754 -24 24 c-33 33 -79 33 -111 0z"/>
<path d="M3585 3425 l-25 -24 0 -740 c0 -424 4 -750 9 -764 11 -28 61 -52 91
-42 11 4 30 16 40 28 20 20 20 39 20 769 l0 749 -25 24 c-15 16 -36 25 -55 25
-19 0 -40 -9 -55 -25z"/>
<path d="M345 3335 l-25 -24 0 -659 c0 -647 0 -659 20 -680 37 -40 82 -39 124
4 14 14 16 88 16 675 l0 660 -25 24 c-15 16 -36 25 -55 25 -19 0 -40 -9 -55
-25z"/>
<path d="M4665 3335 l-25 -24 0 -659 c0 -647 0 -659 20 -680 37 -40 82 -39
124 4 14 14 16 88 16 675 l0 660 -25 24 c-15 16 -36 25 -55 25 -19 0 -40 -9
-55 -25z"/>
<path d="M1065 3065 l-25 -24 0 -380 c0 -209 4 -391 9 -404 11 -28 61 -52 91
-42 11 4 30 16 40 28 19 20 20 37 20 409 l0 389 -25 24 c-15 16 -36 25 -55 25
-19 0 -40 -9 -55 -25z"/>
<path d="M3945 3065 l-25 -24 0 -388 c1 -289 4 -392 13 -404 34 -44 94 -47
128 -6 17 20 18 49 19 410 l0 388 -25 24 c-15 16 -36 25 -55 25 -19 0 -40 -9
-55 -25z"/>
<path d="M1779 2611 c-20 -16 -24 -29 -25 -83 -5 -182 92 -407 236 -548 51
-50 187 -150 204 -150 3 0 31 -12 62 -26 31 -14 94 -33 140 -42 l84 -17 0
-213 c0 -213 0 -213 25 -237 32 -33 78 -33 110 0 25 24 25 24 25 238 l0 213
72 12 c40 7 111 29 158 49 286 121 473 381 497 690 5 78 5 82 -20 107 -50 50
-136 17 -138 -51 -5 -223 -115 -430 -284 -538 -86 -54 -139 -75 -265 -101 -27
-5 -149 -6 -190 0 -298 37 -519 267 -555 578 -3 29 -8 65 -11 80 -11 54 -80
76 -125 39z"/>
<path d="M1418 1672 c-80 -49 -68 -172 20 -209 32 -13 42 -14 77 -2 96 34 110
162 24 213 -35 21 -87 20 -121 -2z"/>
<path d="M3938 1672 c-54 -33 -70 -113 -33 -168 59 -90 205 -49 210 60 3 47
-12 79 -48 104 -39 26 -91 28 -129 4z"/>
</g>
</svg>
